<svg xmlns="http://www.w3.org/2000/svg" version="1.1" xmlns:xlink="http://www.w3.org/1999/xlink" xmlns:svgjs="http://svgjs.com/svgjs" width="1440" height="560" preserveAspectRatio="none" viewBox="0 0 1440 560"><g mask="url(&quot;#SvgjsMask3235&quot;)" fill="none"><rect width="1440" height="560" x="0" y="0" fill="url(#SvgjsRadialGradient3236)"></rect><use xlink:href="#SvgjsSymbol3243" x="0" y="0"></use><use xlink:href="#SvgjsSymbol3243" x="720" y="0"></use></g><defs><mask id="SvgjsMask3235"><rect width="1440" height="560" fill="#ffffff"></rect></mask><radialGradient cx="100%" cy="0%" r="1545.06" gradientUnits="userSpaceOnUse" id="SvgjsRadialGradient3236"><stop stop-color="#0e2a47" offset="0"></stop><stop stop-color="rgba(0, 0, 0, 1)" offset="0.1"></stop><stop stop-color="rgba(0, 0, 0, 1)" offset="0.1"></stop><stop stop-color="rgba(0, 0, 0, 1)" offset="1"></stop></radialGradient><path d="M-1 0 a1 1 0 1 0 2 0 a1 1 0 1 0 -2 0z" id="SvgjsPath3239"></path><path d="M-3 0 a3 3 0 1 0 6 0 a3 3 0 1 0 -6 0z" id="SvgjsPath3242"></path><path d="M-5 0 a5 5 0 1 0 10 0 a5 5 0 1 0 -10 0z" id="SvgjsPath3238"></path><path d="M2 -2 L-2 2z" id="SvgjsPath3240"></path><path d="M6 -6 L-6 6z" id="SvgjsPath3237"></path><path d="M30 -30 L-30 30z" id="SvgjsPath3241"></path></defs><symbol id="SvgjsSymbol3243"><use xlink:href="#SvgjsPath3237" x="30" y="30" stroke="rgba(70, 76, 137, 1)"></use><use xlink:href="#SvgjsPath3237" x="30" y="90" stroke="#1c538e"></use><use xlink:href="#SvgjsPath3237" x="30" y="150" stroke="#1c538e"></use><use xlink:href="#SvgjsPath3237" x="30" y="210" stroke="rgba(70, 76, 137, 1)"></use><use xlink:href="#SvgjsPath3238" x="30" y="270" stroke="rgba(70, 76, 137, 1)"></use><use xlink:href="#SvgjsPath3237" x="30" y="330" stroke="rgba(70, 76, 137, 1)"></use><use xlink:href="#SvgjsPath3239" x="30" y="390" stroke="rgba(70, 76, 137, 1)"></use><use xlink:href="#SvgjsPath3237" x="30" y="450" stroke="rgba(70, 76, 137, 1)"></use><use xlink:href="#SvgjsPath3238" x="30" y="510" stroke="#1c538e"></use><use xlink:href="#SvgjsPath3237" x="30" y="570" stroke="rgba(70, 76, 137, 1)"></use><use xlink:href="#SvgjsPath3237" x="90" y="30" stroke="rgba(70, 76, 137, 1)"></use><use xlink:href="#SvgjsPath3237" x="90" y="90" stroke="#1c538e"></use><use xlink:href="#SvgjsPath3240" x="90" y="150" stroke="rgba(70, 76, 137, 1)"></use><use xlink:href="#SvgjsPath3237" x="90" y="210" stroke="#1c538e"></use><use xlink:href="#SvgjsPath3238" x="90" y="270" stroke="rgba(70, 76, 137, 1)"></use><use xlink:href="#SvgjsPath3237" x="90" y="330" stroke="rgba(70, 76, 137, 1)"></use><use xlink:href="#SvgjsPath3238" x="90" y="390" stroke="rgba(70, 76, 137, 1)"></use><use xlink:href="#SvgjsPath3238" x="90" y="450" stroke="#1c538e"></use><use xlink:href="#SvgjsPath3238" x="90" y="510" stroke="rgba(4, 12, 105, 1)"></use><use xlink:href="#SvgjsPath3238" x="90" y="570" stroke="#1c538e"></use><use xlink:href="#SvgjsPath3239" x="150" y="30" stroke="rgba(70, 76, 137, 1)"></use><use xlink:href="#SvgjsPath3241" x="150" y="90" stroke="#1c538e" stroke-width="3"></use><use xlink:href="#SvgjsPath3241" x="150" y="150" stroke="#1c538e" stroke-width="3"></use><use xlink:href="#SvgjsPath3238" x="150" y="210" stroke="rgba(70, 76, 137, 1)"></use><use xlink:href="#SvgjsPath3238" x="150" y="270" stroke="rgba(4, 12, 105, 1)"></use><use xlink:href="#SvgjsPath3240" x="150" y="330" stroke="rgba(70, 76, 137, 1)"></use><use xlink:href="#SvgjsPath3237" x="150" y="390" stroke="#1c538e"></use><use xlink:href="#SvgjsPath3240" x="150" y="450" stroke="rgba(4, 12, 105, 1)"></use><use xlink:href="#SvgjsPath3237" x="150" y="510" stroke="#1c538e"></use><use xlink:href="#SvgjsPath3240" x="150" y="570" stroke="#1c538e"></use><use xlink:href="#SvgjsPath3237" x="210" y="30" stroke="rgba(70, 76, 137, 1)"></use><use xlink:href="#SvgjsPath3237" x="210" y="90" stroke="rgba(70, 76, 137, 1)"></use><use xlink:href="#SvgjsPath3240" x="210" y="150" stroke="#1c538e"></use><use xlink:href="#SvgjsPath3237" x="210" y="210" stroke="rgba(70, 76, 137, 1)"></use><use xlink:href="#SvgjsPath3238" x="210" y="270" stroke="#1c538e"></use><use xlink:href="#SvgjsPath3238" x="210" y="330" stroke="#1c538e"></use><use xlink:href="#SvgjsPath3237" x="210" y="390" stroke="rgba(70, 76, 137, 1)"></use><use xlink:href="#SvgjsPath3240" x="210" y="450" stroke="rgba(70, 76, 137, 1)"></use><use xlink:href="#SvgjsPath3237" x="210" y="510" stroke="rgba(4, 12, 105, 1)"></use><use xlink:href="#SvgjsPath3242" x="210" y="570" stroke="rgba(70, 76, 137, 1)"></use><use xlink:href="#SvgjsPath3240" x="270" y="30" stroke="rgba(70, 76, 137, 1)"></use><use xlink:href="#SvgjsPath3237" x="270" y="90" stroke="rgba(70, 76, 137, 1)"></use><use xlink:href="#SvgjsPath3242" x="270" y="150" stroke="rgba(70, 76, 137, 1)"></use><use xlink:href="#SvgjsPath3237" x="270" y="210" stroke="rgba(4, 12, 105, 1)"></use><use xlink:href="#SvgjsPath3237" x="270" y="270" stroke="rgba(4, 12, 105, 1)"></use><use xlink:href="#SvgjsPath3238" x="270" y="330" stroke="rgba(70, 76, 137, 1)"></use><use xlink:href="#SvgjsPath3242" x="270" y="390" stroke="rgba(4, 12, 105, 1)"></use><use xlink:href="#SvgjsPath3238" x="270" y="450" stroke="#1c538e"></use><use xlink:href="#SvgjsPath3237" x="270" y="510" stroke="rgba(4, 12, 105, 1)"></use><use xlink:href="#SvgjsPath3238" x="270" y="570" stroke="#1c538e"></use><use xlink:href="#SvgjsPath3239" x="330" y="30" stroke="#1c538e"></use><use xlink:href="#SvgjsPath3240" x="330" y="90" stroke="rgba(4, 12, 105, 1)"></use><use xlink:href="#SvgjsPath3237" x="330" y="150" stroke="rgba(70, 76, 137, 1)"></use><use xlink:href="#SvgjsPath3239" x="330" y="210" stroke="#1c538e"></use><use xlink:href="#SvgjsPath3242" x="330" y="270" stroke="#1c538e"></use><use xlink:href="#SvgjsPath3237" x="330" y="330" stroke="#1c538e"></use><use xlink:href="#SvgjsPath3240" x="330" y="390" stroke="#1c538e"></use><use xlink:href="#SvgjsPath3242" x="330" y="450" stroke="#1c538e"></use><use xlink:href="#SvgjsPath3237" x="330" y="510" stroke="rgba(4, 12, 105, 1)"></use><use xlink:href="#SvgjsPath3240" x="330" y="570" stroke="rgba(70, 76, 137, 1)"></use><use xlink:href="#SvgjsPath3237" x="390" y="30" stroke="rgba(4, 12, 105, 1)"></use><use xlink:href="#SvgjsPath3237" x="390" y="90" stroke="#1c538e"></use><use xlink:href="#SvgjsPath3238" x="390" y="150" stroke="rgba(4, 12, 105, 1)"></use><use xlink:href="#SvgjsPath3241" x="390" y="210" stroke="#1c538e" stroke-width="3"></use><use xlink:href="#SvgjsPath3241" x="390" y="270" stroke="rgba(70, 76, 137, 1)" stroke-width="3"></use><use xlink:href="#SvgjsPath3237" x="390" y="330" stroke="rgba(4, 12, 105, 1)"></use><use xlink:href="#SvgjsPath3240" x="390" y="390" stroke="rgba(4, 12, 105, 1)"></use><use xlink:href="#SvgjsPath3238" x="390" y="450" stroke="#1c538e"></use><use xlink:href="#SvgjsPath3237" x="390" y="510" stroke="rgba(70, 76, 137, 1)"></use><use xlink:href="#SvgjsPath3237" x="390" y="570" stroke="rgba(4, 12, 105, 1)"></use><use xlink:href="#SvgjsPath3238" x="450" y="30" stroke="rgba(4, 12, 105, 1)"></use><use xlink:href="#SvgjsPath3240" x="450" y="90" stroke="rgba(70, 76, 137, 1)"></use><use xlink:href="#SvgjsPath3238" x="450" y="150" stroke="rgba(4, 12, 105, 1)"></use><use xlink:href="#SvgjsPath3237" x="450" y="210" stroke="rgba(4, 12, 105, 1)"></use><use xlink:href="#SvgjsPath3237" x="450" y="270" stroke="rgba(4, 12, 105, 1)"></use><use xlink:href="#SvgjsPath3238" x="450" y="330" stroke="rgba(4, 12, 105, 1)"></use><use xlink:href="#SvgjsPath3241" x="450" y="390" stroke="rgba(70, 76, 137, 1)" stroke-width="3"></use><use xlink:href="#SvgjsPath3238" x="450" y="450" stroke="rgba(70, 76, 137, 1)"></use><use xlink:href="#SvgjsPath3238" x="450" y="510" stroke="rgba(70, 76, 137, 1)"></use><use xlink:href="#SvgjsPath3242" x="450" y="570" stroke="rgba(4, 12, 105, 1)"></use><use xlink:href="#SvgjsPath3239" x="510" y="30" stroke="#1c538e"></use><use xlink:href="#SvgjsPath3237" x="510" y="90" stroke="#1c538e"></use><use xlink:href="#SvgjsPath3238" x="510" y="150" stroke="rgba(70, 76, 137, 1)"></use><use xlink:href="#SvgjsPath3237" x="510" y="210" stroke="rgba(4, 12, 105, 1)"></use><use xlink:href="#SvgjsPath3239" x="510" y="270" stroke="#1c538e"></use><use xlink:href="#SvgjsPath3237" x="510" y="330" stroke="#1c538e"></use><use xlink:href="#SvgjsPath3238" x="510" y="390" stroke="rgba(70, 76, 137, 1)"></use><use xlink:href="#SvgjsPath3239" x="510" y="450" stroke="#1c538e"></use><use xlink:href="#SvgjsPath3237" x="510" y="510" stroke="rgba(4, 12, 105, 1)"></use><use xlink:href="#SvgjsPath3238" x="510" y="570" stroke="#1c538e"></use><use xlink:href="#SvgjsPath3237" x="570" y="30" stroke="#1c538e"></use><use xlink:href="#SvgjsPath3237" x="570" y="90" stroke="#1c538e"></use><use xlink:href="#SvgjsPath3237" x="570" y="150" stroke="rgba(70, 76, 137, 1)"></use><use xlink:href="#SvgjsPath3238" x="570" y="210" stroke="rgba(4, 12, 105, 1)"></use><use xlink:href="#SvgjsPath3241" x="570" y="270" stroke="#1c538e" stroke-width="3"></use><use xlink:href="#SvgjsPath3241" x="570" y="330" stroke="rgba(4, 12, 105, 1)" stroke-width="3"></use><use xlink:href="#SvgjsPath3237" x="570" y="390" stroke="#1c538e"></use><use xlink:href="#SvgjsPath3238" x="570" y="450" stroke="rgba(4, 12, 105, 1)"></use><use xlink:href="#SvgjsPath3242" x="570" y="510" stroke="rgba(4, 12, 105, 1)"></use><use xlink:href="#SvgjsPath3240" x="570" y="570" stroke="#1c538e"></use><use xlink:href="#SvgjsPath3237" x="630" y="30" stroke="rgba(70, 76, 137, 1)"></use><use xlink:href="#SvgjsPath3237" x="630" y="90" stroke="rgba(70, 76, 137, 1)"></use><use xlink:href="#SvgjsPath3238" x="630" y="150" stroke="#1c538e"></use><use xlink:href="#SvgjsPath3240" x="630" y="210" stroke="rgba(70, 76, 137, 1)"></use><use xlink:href="#SvgjsPath3237" x="630" y="270" stroke="rgba(70, 76, 137, 1)"></use><use xlink:href="#SvgjsPath3242" x="630" y="330" stroke="#1c538e"></use><use xlink:href="#SvgjsPath3238" x="630" y="390" stroke="rgba(70, 76, 137, 1)"></use><use xlink:href="#SvgjsPath3237" x="630" y="450" stroke="rgba(4, 12, 105, 1)"></use><use xlink:href="#SvgjsPath3237" x="630" y="510" stroke="rgba(4, 12, 105, 1)"></use><use xlink:href="#SvgjsPath3237" x="630" y="570" stroke="rgba(70, 76, 137, 1)"></use><use xlink:href="#SvgjsPath3238" x="690" y="30" stroke="rgba(70, 76, 137, 1)"></use><use xlink:href="#SvgjsPath3237" x="690" y="90" stroke="rgba(4, 12, 105, 1)"></use><use xlink:href="#SvgjsPath3239" x="690" y="150" stroke="rgba(4, 12, 105, 1)"></use><use xlink:href="#SvgjsPath3237" x="690" y="210" stroke="#1c538e"></use><use xlink:href="#SvgjsPath3238" x="690" y="270" stroke="rgba(4, 12, 105, 1)"></use><use xlink:href="#SvgjsPath3237" x="690" y="330" stroke="#1c538e"></use><use xlink:href="#SvgjsPath3238" x="690" y="390" stroke="rgba(4, 12, 105, 1)"></use><use xlink:href="#SvgjsPath3238" x="690" y="450" stroke="#1c538e"></use><use xlink:href="#SvgjsPath3242" x="690" y="510" stroke="rgba(70, 76, 137, 1)"></use><use xlink:href="#SvgjsPath3238" x="690" y="570" stroke="rgba(70, 76, 137, 1)"></use></symbol></svg>